<svg width="55" height="55" xmlns="http://www.w3.org/2000/svg" fill="#000000">

 <g>
  <title>Layer 1</title>
  <path stroke="null" id="svg_1" d="m13.72507,30.91844l14.48502,15.7904c1.17061,1.37989 1.00098,3.44752 -0.37891,4.61813s-3.44752,1.00098 -4.61813,-0.37891l-19.26234,-20.99826a3.26112,3.26112 0 0 1 -0.66255,-0.96239a3.26996,3.26996 0 0 1 -0.28729,-1.41738l0.00005,-0.00303a3.28501,3.28501 0 0 1 0.3492,-1.40037a3.28198,3.28198 0 0 1 0.06652,-0.12497a3.24881,3.24881 0 0 1 0.48557,-0.65789l19.77449,-21.33458c1.23012,-1.32716 3.30317,-1.4058 4.63029,-0.17573s1.4058,3.30317 0.17573,4.63029l-14.70184,15.86174l35.11062,0c1.80956,0 3.2765,1.46694 3.2765,3.2765s-1.46694,3.2765 -3.2765,3.2765l-35.16642,0l0,-0.00005z"/>
 </g>
</svg>