<svg width="55" height="55" xmlns="http://www.w3.org/2000/svg" version="1.1" baseProfile="full" enable-background="new 0 0 76.00 76.00" xml:space="preserve">
 <g>
  <title>Layer 1</title>
  <path stroke="null" fill="#000000" stroke-width="0.2" stroke-linejoin="round" d="m20.86793,20.99293l13.26392,0l0,13.26392l-13.26392,0l0,-13.26392zm0,-17.2431l13.26392,0l0,13.26392l-13.26392,0l0,-13.26392zm-17.2431,0l13.26392,0l0,13.26392l-13.26392,0l0,-13.26392zm0,17.2431l13.26392,0l0,13.26392l-13.26392,0l0,-13.26392zm34.4862,0l13.26392,0l0,13.26392l-13.26392,0l0,-13.26392zm0,-17.2431l13.26392,0l0,13.26392l-13.26392,0l0,-13.26392zm-34.4862,34.4862l13.26392,0l0,13.26392l-13.26392,0l0,-13.26392zm17.2431,0l13.26392,0l0,13.26392l-13.26392,0l0,-13.26392zm17.2431,0l13.26392,0l0,13.26392l-13.26392,0l0,-13.26392z" id="svg_1"/>
 </g>

</svg>